# xmcd
#
# Track frame offsets:
#	150
#	24767
#	42434
#	65665
#	87902
#	109014
#	130144
#	148861
#	171168
#	197155
#	218891
#	243498
#	269542
#	300942
#
# Disc length: 4417 seconds
#
# Revision: 1
# Processed by: cddbd v1.5.1PL2 Copyright (c) Steve Scherf et al.
# Submitted via: audiograbber 1.83.01
#
DISCID=c8113f0e
DTITLE=Khaled - Hafla
DYEAR=1998
DGENRE=
TTITLE0=Didi
TTITLE1=Sahra
TTITLE2=Aicha
TTITLE3=Chebba
TTITLE4=Abdel Kader
TTITLE5=Ouelli El Darek
TTITLE6=N'ssi N'ssi
TTITLE7=Lillah
TTITLE8=La Camel
TTITLE9=Wahrane Wahrane
TTITLE10=Ragda
TTITLE11=Walou Walou
TTITLE12=Mauvais Sang
TTITLE13=El Harba
EXTD=
EXTT0=
EXTT1=
EXTT2=
EXTT3=
EXTT4=
EXTT5=
EXTT6=
EXTT7=
EXTT8=
EXTT9=
EXTT10=
EXTT11=
EXTT12=
EXTT13=
PLAYORDER=
